<svg xmlns="http://www.w3.org/2000/svg" viewBox="0 0 200 200">
  <defs>
    <linearGradient id="messy" x1="0" y1="0" x2="0.5" y2="1">
      <stop offset="0%" stop-color="#d97706"/>
      <stop offset="100%" stop-color="#92400e"/>
    </linearGradient>
  </defs>
  <rect width="200" height="200" fill="url(#messy)"/>
  <!-- Scattered shapes -->
  <rect x="25" y="30" width="28" height="28" rx="3" fill="#fbbf24" opacity="0.5" transform="rotate(15 39 44)"/>
  <circle cx="150" cy="45" r="18" fill="#fde68a" opacity="0.4"/>
  <rect x="120" y="100" width="35" height="22" rx="3" fill="#f59e0b" opacity="0.45" transform="rotate(-20 137 111)"/>
  <circle cx="55" cy="110" r="14" fill="#fcd34d" opacity="0.5"/>
  <rect x="80" y="55" width="20" height="30" rx="2" fill="#fbbf24" opacity="0.35" transform="rotate(35 90 70)"/>
  <polygon points="160,130 175,155 145,155" fill="#fde68a" opacity="0.5" transform="rotate(10 160 142)"/>
  <circle cx="100" cy="140" r="10" fill="#f59e0b" opacity="0.4"/>
  <rect x="30" y="145" width="25" height="18" rx="3" fill="#fcd34d" opacity="0.4" transform="rotate(-10 42 154)"/>
  <!-- Texture dots -->
  <circle cx="75" cy="35" r="3" fill="#fffbeb" opacity="0.3"/>
  <circle cx="170" cy="90" r="4" fill="#fffbeb" opacity="0.3"/>
  <circle cx="40" cy="80" r="3" fill="#fffbeb" opacity="0.3"/>
  <text x="100" y="185" text-anchor="middle" font-family="sans-serif" font-size="11" font-weight="bold" fill="#fef3c7">MESSY</text>
</svg>
