<svg xmlns="http://www.w3.org/2000/svg" viewBox="0 0 200 200">
  <rect width="200" height="200" fill="#dbeafe"/>
  <!-- Quote marks -->
  <text x="30" y="60" font-family="Georgia, serif" font-size="48" fill="#3b82f6" opacity="0.6">"</text>
  <text x="155" y="110" font-family="Georgia, serif" font-size="48" fill="#3b82f6" opacity="0.6">"</text>
  <!-- Text lines placeholder -->
  <rect x="50" y="70" width="100" height="6" rx="3" fill="#93c5fd"/>
  <rect x="60" y="84" width="80" height="6" rx="3" fill="#93c5fd"/>
  <rect x="55" y="98" width="90" height="6" rx="3" fill="#93c5fd"/>
  <!-- Stars row -->
  <g transform="translate(52,120)" fill="#f59e0b">
    <polygon points="10,0 12.5,7 20,7 14,11.5 16,19 10,14 4,19 6,11.5 0,7 7.5,7"/>
    <polygon points="34,0 36.5,7 44,7 38,11.5 40,19 34,14 28,19 30,11.5 24,7 31.5,7"/>
    <polygon points="58,0 60.5,7 68,7 62,11.5 64,19 58,14 52,19 54,11.5 48,7 55.5,7"/>
    <polygon points="82,0 84.5,7 92,7 86,11.5 88,19 82,14 76,19 78,11.5 72,7 79.5,7"/>
    <polygon points="106,0 108.5,7 116,7 110,11.5 112,19 106,14 100,19 102,11.5 96,7 103.5,7"/>
  </g>
  <text x="100" y="168" text-anchor="middle" font-family="sans-serif" font-size="11" font-weight="bold" fill="#2563eb">PROOF</text>
</svg>
